<mxfile host="app.diagrams.net" modified="2022-05-26T13:58:17.602Z" agent="5.0 (Windows)" etag="qkOIyZk3_42bxJRs_UJt" version="18.1.2" type="github">
  <diagram name="Page-1" id="0783ab3e-0a74-02c8-0abd-f7b4e66b4bec">
    <mxGraphModel dx="2333" dy="766" grid="1" gridSize="10" guides="1" tooltips="1" connect="1" arrows="1" fold="1" page="1" pageScale="1" pageWidth="850" pageHeight="1100" background="none" math="0" shadow="0">
      <root>
        <mxCell id="0" />
        <mxCell id="1" parent="0" />
        <mxCell id="1c1d494c118603dd-1" value="In-App chat management" style="swimlane;html=1;childLayout=stackLayout;startSize=20;rounded=0;shadow=0;comic=0;labelBackgroundColor=none;strokeWidth=1;fontFamily=Verdana;fontSize=12;align=center;" parent="1" vertex="1">
          <mxGeometry x="-268" y="20" width="1240" height="1270" as="geometry" />
        </mxCell>
        <mxCell id="1c1d494c118603dd-2" value="User" style="swimlane;html=1;startSize=20;" parent="1c1d494c118603dd-1" vertex="1">
          <mxGeometry y="20" width="710" height="1250" as="geometry" />
        </mxCell>
        <mxCell id="1c1d494c118603dd-34" style="edgeStyle=none;rounded=0;html=1;labelBackgroundColor=none;startArrow=none;startFill=0;startSize=5;endArrow=classicThin;endFill=1;endSize=5;jettySize=auto;orthogonalLoop=1;strokeWidth=1;fontFamily=Verdana;fontSize=12" parent="1c1d494c118603dd-2" target="1c1d494c118603dd-10" edge="1">
          <mxGeometry relative="1" as="geometry">
            <mxPoint x="148.75" y="250" as="sourcePoint" />
          </mxGeometry>
        </mxCell>
        <mxCell id="1c1d494c118603dd-35" style="edgeStyle=none;rounded=0;html=1;labelBackgroundColor=none;startArrow=none;startFill=0;startSize=5;endArrow=classicThin;endFill=1;endSize=5;jettySize=auto;orthogonalLoop=1;strokeWidth=1;fontFamily=Verdana;fontSize=12" parent="1c1d494c118603dd-2" target="1c1d494c118603dd-7" edge="1">
          <mxGeometry relative="1" as="geometry">
            <mxPoint x="162.72727272727252" y="310" as="sourcePoint" />
          </mxGeometry>
        </mxCell>
        <mxCell id="1c1d494c118603dd-46" style="edgeStyle=none;rounded=0;html=1;labelBackgroundColor=none;startArrow=none;startFill=0;startSize=5;endArrow=oval;endFill=0;endSize=5;jettySize=auto;orthogonalLoop=1;strokeWidth=1;fontFamily=Verdana;fontSize=12;dashed=1;" parent="1c1d494c118603dd-2" source="1c1d494c118603dd-21" edge="1">
          <mxGeometry relative="1" as="geometry">
            <mxPoint x="120.625" y="250" as="targetPoint" />
          </mxGeometry>
        </mxCell>
        <mxCell id="1c1d494c118603dd-47" style="edgeStyle=none;rounded=0;html=1;dashed=1;labelBackgroundColor=none;startArrow=none;startFill=0;startSize=5;endArrow=oval;endFill=0;endSize=5;jettySize=auto;orthogonalLoop=1;strokeWidth=1;fontFamily=Verdana;fontSize=12" parent="1c1d494c118603dd-2" target="1c1d494c118603dd-10" edge="1">
          <mxGeometry relative="1" as="geometry">
            <mxPoint x="105" y="295" as="sourcePoint" />
          </mxGeometry>
        </mxCell>
        <mxCell id="G0RN5hafsZTGZZTyP4_G-41" style="edgeStyle=orthogonalEdgeStyle;rounded=1;orthogonalLoop=1;jettySize=auto;html=1;exitX=0.5;exitY=1;exitDx=0;exitDy=0;" edge="1" parent="1c1d494c118603dd-2" source="G0RN5hafsZTGZZTyP4_G-11" target="G0RN5hafsZTGZZTyP4_G-12">
          <mxGeometry relative="1" as="geometry" />
        </mxCell>
        <mxCell id="G0RN5hafsZTGZZTyP4_G-11" value="" style="ellipse;html=1;shape=endState;fillColor=#000000;strokeColor=#ff0000;" vertex="1" parent="1c1d494c118603dd-2">
          <mxGeometry x="312.5" y="20" width="30" height="30" as="geometry" />
        </mxCell>
        <mxCell id="G0RN5hafsZTGZZTyP4_G-100" style="edgeStyle=orthogonalEdgeStyle;rounded=1;orthogonalLoop=1;jettySize=auto;html=1;exitX=0.5;exitY=1;exitDx=0;exitDy=0;entryX=0.465;entryY=0.829;entryDx=0;entryDy=0;entryPerimeter=0;" edge="1" parent="1c1d494c118603dd-2" source="G0RN5hafsZTGZZTyP4_G-12" target="G0RN5hafsZTGZZTyP4_G-74">
          <mxGeometry relative="1" as="geometry" />
        </mxCell>
        <mxCell id="G0RN5hafsZTGZZTyP4_G-12" value="Login" style="rounded=1;whiteSpace=wrap;html=1;arcSize=40;fontColor=#000000;fillColor=#ffffc0;strokeColor=#ff0000;" vertex="1" parent="1c1d494c118603dd-2">
          <mxGeometry x="269" y="90" width="117" height="20" as="geometry" />
        </mxCell>
        <mxCell id="G0RN5hafsZTGZZTyP4_G-15" value="Messages" style="rounded=1;whiteSpace=wrap;html=1;arcSize=40;fontColor=#000000;fillColor=#ffffc0;strokeColor=#ff0000;" vertex="1" parent="1c1d494c118603dd-2">
          <mxGeometry x="421.5" y="185" width="117" height="30" as="geometry" />
        </mxCell>
        <mxCell id="G0RN5hafsZTGZZTyP4_G-24" value="Error alert" style="rounded=1;whiteSpace=wrap;html=1;arcSize=40;fontColor=#000000;fillColor=#ffffc0;strokeColor=#ff0000;" vertex="1" parent="1c1d494c118603dd-2">
          <mxGeometry x="418" y="230" width="112" height="35" as="geometry" />
        </mxCell>
        <mxCell id="G0RN5hafsZTGZZTyP4_G-82" style="edgeStyle=orthogonalEdgeStyle;rounded=1;orthogonalLoop=1;jettySize=auto;html=1;exitX=0.5;exitY=1;exitDx=0;exitDy=0;entryX=0.468;entryY=0.454;entryDx=0;entryDy=0;entryPerimeter=0;" edge="1" parent="1c1d494c118603dd-2" source="G0RN5hafsZTGZZTyP4_G-26" target="G0RN5hafsZTGZZTyP4_G-34">
          <mxGeometry relative="1" as="geometry" />
        </mxCell>
        <mxCell id="G0RN5hafsZTGZZTyP4_G-26" value="Load chats" style="rounded=1;whiteSpace=wrap;html=1;arcSize=40;fontColor=#000000;fillColor=#ffffc0;strokeColor=#ff0000;" vertex="1" parent="1c1d494c118603dd-2">
          <mxGeometry x="408" y="370" width="112" height="30" as="geometry" />
        </mxCell>
        <mxCell id="G0RN5hafsZTGZZTyP4_G-27" value="Click on chat" style="rounded=1;whiteSpace=wrap;html=1;arcSize=40;fontColor=#000000;fillColor=#ffffc0;strokeColor=#ff0000;" vertex="1" parent="1c1d494c118603dd-2">
          <mxGeometry x="458" y="460" width="112" height="30" as="geometry" />
        </mxCell>
        <mxCell id="G0RN5hafsZTGZZTyP4_G-36" style="edgeStyle=orthogonalEdgeStyle;rounded=1;orthogonalLoop=1;jettySize=auto;html=1;exitX=0.75;exitY=0.5;exitDx=0;exitDy=0;exitPerimeter=0;entryX=0.5;entryY=0;entryDx=0;entryDy=0;" edge="1" parent="1c1d494c118603dd-2" source="G0RN5hafsZTGZZTyP4_G-34" target="G0RN5hafsZTGZZTyP4_G-27">
          <mxGeometry relative="1" as="geometry" />
        </mxCell>
        <mxCell id="G0RN5hafsZTGZZTyP4_G-42" style="edgeStyle=orthogonalEdgeStyle;rounded=1;orthogonalLoop=1;jettySize=auto;html=1;exitX=0.25;exitY=0.5;exitDx=0;exitDy=0;exitPerimeter=0;entryX=0.5;entryY=0;entryDx=0;entryDy=0;" edge="1" parent="1c1d494c118603dd-2" source="G0RN5hafsZTGZZTyP4_G-34" target="G0RN5hafsZTGZZTyP4_G-37">
          <mxGeometry relative="1" as="geometry">
            <Array as="points">
              <mxPoint x="420" y="450" />
              <mxPoint x="328" y="450" />
            </Array>
          </mxGeometry>
        </mxCell>
        <mxCell id="G0RN5hafsZTGZZTyP4_G-34" value="" style="shape=line;html=1;strokeWidth=6;strokeColor=#ff0000;" vertex="1" parent="1c1d494c118603dd-2">
          <mxGeometry x="370" y="400" width="200" height="45" as="geometry" />
        </mxCell>
        <mxCell id="G0RN5hafsZTGZZTyP4_G-86" style="edgeStyle=orthogonalEdgeStyle;rounded=1;orthogonalLoop=1;jettySize=auto;html=1;exitX=0.5;exitY=1;exitDx=0;exitDy=0;entryX=0.25;entryY=0.5;entryDx=0;entryDy=0;entryPerimeter=0;" edge="1" parent="1c1d494c118603dd-2" source="G0RN5hafsZTGZZTyP4_G-37" target="G0RN5hafsZTGZZTyP4_G-64">
          <mxGeometry relative="1" as="geometry" />
        </mxCell>
        <mxCell id="G0RN5hafsZTGZZTyP4_G-37" value="Delete chat" style="rounded=1;whiteSpace=wrap;html=1;arcSize=40;fontColor=#000000;fillColor=#ffffc0;strokeColor=#ff0000;" vertex="1" parent="1c1d494c118603dd-2">
          <mxGeometry x="271.5" y="470" width="112" height="30" as="geometry" />
        </mxCell>
        <mxCell id="G0RN5hafsZTGZZTyP4_G-51" style="edgeStyle=orthogonalEdgeStyle;rounded=1;orthogonalLoop=1;jettySize=auto;html=1;exitX=0.5;exitY=1;exitDx=0;exitDy=0;entryX=0.504;entryY=0.337;entryDx=0;entryDy=0;entryPerimeter=0;" edge="1" parent="1c1d494c118603dd-2" source="G0RN5hafsZTGZZTyP4_G-43" target="G0RN5hafsZTGZZTyP4_G-49">
          <mxGeometry relative="1" as="geometry" />
        </mxCell>
        <mxCell id="G0RN5hafsZTGZZTyP4_G-43" value="View chat box" style="rounded=1;whiteSpace=wrap;html=1;arcSize=40;fontColor=#000000;fillColor=#ffffc0;strokeColor=#ff0000;" vertex="1" parent="1c1d494c118603dd-2">
          <mxGeometry x="468" y="560" width="112" height="30" as="geometry" />
        </mxCell>
        <mxCell id="G0RN5hafsZTGZZTyP4_G-48" value="Error alert" style="rounded=1;whiteSpace=wrap;html=1;arcSize=40;fontColor=#000000;fillColor=#ffffc0;strokeColor=#ff0000;" vertex="1" parent="1c1d494c118603dd-2">
          <mxGeometry x="458" y="510" width="112" height="35" as="geometry" />
        </mxCell>
        <mxCell id="G0RN5hafsZTGZZTyP4_G-54" style="edgeStyle=orthogonalEdgeStyle;rounded=1;orthogonalLoop=1;jettySize=auto;html=1;exitX=0.25;exitY=0.5;exitDx=0;exitDy=0;exitPerimeter=0;" edge="1" parent="1c1d494c118603dd-2" source="G0RN5hafsZTGZZTyP4_G-49" target="G0RN5hafsZTGZZTyP4_G-52">
          <mxGeometry relative="1" as="geometry" />
        </mxCell>
        <mxCell id="G0RN5hafsZTGZZTyP4_G-55" style="edgeStyle=orthogonalEdgeStyle;rounded=1;orthogonalLoop=1;jettySize=auto;html=1;exitX=0.75;exitY=0.5;exitDx=0;exitDy=0;exitPerimeter=0;entryX=0.5;entryY=0;entryDx=0;entryDy=0;" edge="1" parent="1c1d494c118603dd-2" source="G0RN5hafsZTGZZTyP4_G-49" target="G0RN5hafsZTGZZTyP4_G-53">
          <mxGeometry relative="1" as="geometry" />
        </mxCell>
        <mxCell id="G0RN5hafsZTGZZTyP4_G-49" value="" style="shape=line;html=1;strokeWidth=6;strokeColor=#ff0000;" vertex="1" parent="1c1d494c118603dd-2">
          <mxGeometry x="424" y="620" width="200" height="10" as="geometry" />
        </mxCell>
        <mxCell id="G0RN5hafsZTGZZTyP4_G-58" style="edgeStyle=orthogonalEdgeStyle;rounded=1;orthogonalLoop=1;jettySize=auto;html=1;exitX=0.5;exitY=1;exitDx=0;exitDy=0;entryX=0.25;entryY=0.5;entryDx=0;entryDy=0;entryPerimeter=0;" edge="1" parent="1c1d494c118603dd-2" source="G0RN5hafsZTGZZTyP4_G-52" target="G0RN5hafsZTGZZTyP4_G-84">
          <mxGeometry relative="1" as="geometry">
            <mxPoint x="458" y="754.9999999999998" as="targetPoint" />
          </mxGeometry>
        </mxCell>
        <mxCell id="G0RN5hafsZTGZZTyP4_G-52" value="download chat history report" style="rounded=1;whiteSpace=wrap;html=1;arcSize=40;fontColor=#000000;fillColor=#ffffc0;strokeColor=#ff0000;" vertex="1" parent="1c1d494c118603dd-2">
          <mxGeometry x="386" y="680" width="112" height="30" as="geometry" />
        </mxCell>
        <mxCell id="G0RN5hafsZTGZZTyP4_G-57" style="edgeStyle=orthogonalEdgeStyle;rounded=1;orthogonalLoop=1;jettySize=auto;html=1;exitX=0.5;exitY=1;exitDx=0;exitDy=0;entryX=0.75;entryY=0.5;entryDx=0;entryDy=0;entryPerimeter=0;" edge="1" parent="1c1d494c118603dd-2" source="G0RN5hafsZTGZZTyP4_G-53" target="G0RN5hafsZTGZZTyP4_G-84">
          <mxGeometry relative="1" as="geometry">
            <mxPoint x="558" y="754.9999999999998" as="targetPoint" />
          </mxGeometry>
        </mxCell>
        <mxCell id="G0RN5hafsZTGZZTyP4_G-53" value="Send message" style="rounded=1;whiteSpace=wrap;html=1;arcSize=40;fontColor=#000000;fillColor=#ffffc0;strokeColor=#ff0000;" vertex="1" parent="1c1d494c118603dd-2">
          <mxGeometry x="512" y="680" width="112" height="30" as="geometry" />
        </mxCell>
        <mxCell id="G0RN5hafsZTGZZTyP4_G-64" value="" style="shape=line;html=1;strokeWidth=6;strokeColor=#ff0000;" vertex="1" parent="1c1d494c118603dd-2">
          <mxGeometry x="178" y="804" width="462" height="10" as="geometry" />
        </mxCell>
        <mxCell id="G0RN5hafsZTGZZTyP4_G-70" value="Error alert" style="rounded=1;whiteSpace=wrap;html=1;arcSize=40;fontColor=#000000;fillColor=#ffffc0;strokeColor=#ff0000;" vertex="1" parent="1c1d494c118603dd-2">
          <mxGeometry x="486" y="910" width="112" height="35" as="geometry" />
        </mxCell>
        <mxCell id="G0RN5hafsZTGZZTyP4_G-72" value="Success message" style="rounded=1;whiteSpace=wrap;html=1;arcSize=40;fontColor=#000000;fillColor=#ffffc0;strokeColor=#ff0000;" vertex="1" parent="1c1d494c118603dd-2">
          <mxGeometry x="486" y="990" width="112" height="35" as="geometry" />
        </mxCell>
        <mxCell id="G0RN5hafsZTGZZTyP4_G-90" style="edgeStyle=orthogonalEdgeStyle;rounded=1;orthogonalLoop=1;jettySize=auto;html=1;exitX=0.75;exitY=0.5;exitDx=0;exitDy=0;exitPerimeter=0;entryX=0.5;entryY=0;entryDx=0;entryDy=0;" edge="1" parent="1c1d494c118603dd-2" source="G0RN5hafsZTGZZTyP4_G-74" target="G0RN5hafsZTGZZTyP4_G-15">
          <mxGeometry relative="1" as="geometry">
            <Array as="points">
              <mxPoint x="381" y="170" />
              <mxPoint x="477" y="170" />
              <mxPoint x="477" y="185" />
            </Array>
          </mxGeometry>
        </mxCell>
        <mxCell id="G0RN5hafsZTGZZTyP4_G-91" style="edgeStyle=orthogonalEdgeStyle;rounded=1;orthogonalLoop=1;jettySize=auto;html=1;exitX=0.25;exitY=0.5;exitDx=0;exitDy=0;exitPerimeter=0;entryX=0.5;entryY=0;entryDx=0;entryDy=0;" edge="1" parent="1c1d494c118603dd-2" source="G0RN5hafsZTGZZTyP4_G-74" target="G0RN5hafsZTGZZTyP4_G-77">
          <mxGeometry relative="1" as="geometry">
            <Array as="points">
              <mxPoint x="281" y="160" />
              <mxPoint x="189" y="160" />
            </Array>
          </mxGeometry>
        </mxCell>
        <mxCell id="G0RN5hafsZTGZZTyP4_G-74" value="" style="shape=line;html=1;strokeWidth=6;strokeColor=#ff0000;" vertex="1" parent="1c1d494c118603dd-2">
          <mxGeometry x="230.5" y="140" width="200" height="10" as="geometry" />
        </mxCell>
        <mxCell id="G0RN5hafsZTGZZTyP4_G-77" value="Product overview" style="rounded=1;whiteSpace=wrap;html=1;arcSize=40;fontColor=#000000;fillColor=#ffffc0;strokeColor=#ff0000;" vertex="1" parent="1c1d494c118603dd-2">
          <mxGeometry x="131" y="185" width="117" height="30" as="geometry" />
        </mxCell>
        <mxCell id="G0RN5hafsZTGZZTyP4_G-84" value="" style="shape=line;html=1;strokeWidth=6;strokeColor=#ff0000;" vertex="1" parent="1c1d494c118603dd-2">
          <mxGeometry x="398" y="760" width="200" height="10" as="geometry" />
        </mxCell>
        <mxCell id="G0RN5hafsZTGZZTyP4_G-85" value="" style="edgeStyle=orthogonalEdgeStyle;html=1;verticalAlign=bottom;endArrow=open;endSize=8;strokeColor=#ff0000;rounded=1;entryX=0.494;entryY=0.829;entryDx=0;entryDy=0;entryPerimeter=0;" edge="1" source="G0RN5hafsZTGZZTyP4_G-84" parent="1c1d494c118603dd-2" target="G0RN5hafsZTGZZTyP4_G-64">
          <mxGeometry relative="1" as="geometry">
            <mxPoint x="518" y="850" as="targetPoint" />
          </mxGeometry>
        </mxCell>
        <mxCell id="G0RN5hafsZTGZZTyP4_G-103" style="edgeStyle=orthogonalEdgeStyle;rounded=1;orthogonalLoop=1;jettySize=auto;html=1;exitX=0.75;exitY=0.5;exitDx=0;exitDy=0;exitPerimeter=0;entryX=0.5;entryY=0;entryDx=0;entryDy=0;" edge="1" parent="1c1d494c118603dd-2" source="G0RN5hafsZTGZZTyP4_G-101" target="G0RN5hafsZTGZZTyP4_G-26">
          <mxGeometry relative="1" as="geometry" />
        </mxCell>
        <mxCell id="G0RN5hafsZTGZZTyP4_G-105" style="edgeStyle=orthogonalEdgeStyle;rounded=1;orthogonalLoop=1;jettySize=auto;html=1;exitX=0.25;exitY=0.5;exitDx=0;exitDy=0;exitPerimeter=0;entryX=0.5;entryY=0;entryDx=0;entryDy=0;" edge="1" parent="1c1d494c118603dd-2" source="G0RN5hafsZTGZZTyP4_G-101" target="G0RN5hafsZTGZZTyP4_G-104">
          <mxGeometry relative="1" as="geometry" />
        </mxCell>
        <mxCell id="G0RN5hafsZTGZZTyP4_G-101" value="" style="shape=line;html=1;strokeWidth=6;strokeColor=#ff0000;" vertex="1" parent="1c1d494c118603dd-2">
          <mxGeometry x="278" y="330" width="200" height="10" as="geometry" />
        </mxCell>
        <mxCell id="G0RN5hafsZTGZZTyP4_G-104" value="Search user" style="rounded=1;whiteSpace=wrap;html=1;arcSize=40;fontColor=#000000;fillColor=#ffffc0;strokeColor=#ff0000;" vertex="1" parent="1c1d494c118603dd-2">
          <mxGeometry x="218" y="370" width="112" height="30" as="geometry" />
        </mxCell>
        <mxCell id="1c1d494c118603dd-36" style="edgeStyle=none;rounded=0;html=1;labelBackgroundColor=none;startArrow=none;startFill=0;startSize=5;endArrow=classicThin;endFill=1;endSize=5;jettySize=auto;orthogonalLoop=1;strokeWidth=1;fontFamily=Verdana;fontSize=12" parent="1c1d494c118603dd-1" target="1c1d494c118603dd-14" edge="1">
          <mxGeometry relative="1" as="geometry">
            <mxPoint x="180" y="383.0434782608696" as="sourcePoint" />
          </mxGeometry>
        </mxCell>
        <mxCell id="1c1d494c118603dd-42" style="edgeStyle=none;rounded=0;html=1;labelBackgroundColor=none;startArrow=none;startFill=0;startSize=5;endArrow=classicThin;endFill=1;endSize=5;jettySize=auto;orthogonalLoop=1;strokeWidth=1;fontFamily=Verdana;fontSize=12" parent="1c1d494c118603dd-1" target="1c1d494c118603dd-17" edge="1">
          <mxGeometry relative="1" as="geometry">
            <mxPoint x="435" y="628.0434782608695" as="sourcePoint" />
          </mxGeometry>
        </mxCell>
        <mxCell id="1c1d494c118603dd-55" style="edgeStyle=none;rounded=0;html=1;dashed=1;labelBackgroundColor=none;startArrow=none;startFill=0;startSize=5;endArrow=oval;endFill=0;endSize=5;jettySize=auto;orthogonalLoop=1;strokeWidth=1;fontFamily=Verdana;fontSize=12" parent="1c1d494c118603dd-1" target="1c1d494c118603dd-17" edge="1">
          <mxGeometry relative="1" as="geometry">
            <mxPoint x="395" y="678.6666666666667" as="sourcePoint" />
          </mxGeometry>
        </mxCell>
        <mxCell id="G0RN5hafsZTGZZTyP4_G-21" value="no" style="edgeStyle=orthogonalEdgeStyle;html=1;align=left;verticalAlign=bottom;endArrow=open;endSize=8;strokeColor=#ff0000;rounded=1;entryX=1;entryY=0.5;entryDx=0;entryDy=0;" edge="1" source="G0RN5hafsZTGZZTyP4_G-20" parent="1c1d494c118603dd-1" target="G0RN5hafsZTGZZTyP4_G-24">
          <mxGeometry x="-0.7204" y="-5" relative="1" as="geometry">
            <mxPoint x="208" y="235" as="targetPoint" />
            <Array as="points">
              <mxPoint x="678" y="295" />
              <mxPoint x="678" y="270" />
              <mxPoint x="588" y="270" />
              <mxPoint x="588" y="267" />
            </Array>
            <mxPoint as="offset" />
          </mxGeometry>
        </mxCell>
        <mxCell id="G0RN5hafsZTGZZTyP4_G-22" value="yes" style="edgeStyle=orthogonalEdgeStyle;html=1;align=left;verticalAlign=top;endArrow=open;endSize=8;strokeColor=#ff0000;rounded=1;" edge="1" source="G0RN5hafsZTGZZTyP4_G-20" parent="1c1d494c118603dd-1" target="G0RN5hafsZTGZZTyP4_G-101">
          <mxGeometry x="-1" relative="1" as="geometry">
            <mxPoint x="188" y="295" as="targetPoint" />
            <Array as="points">
              <mxPoint x="835" y="330" />
              <mxPoint x="378" y="330" />
            </Array>
          </mxGeometry>
        </mxCell>
        <mxCell id="G0RN5hafsZTGZZTyP4_G-31" style="edgeStyle=orthogonalEdgeStyle;rounded=1;orthogonalLoop=1;jettySize=auto;html=1;exitX=1;exitY=0.5;exitDx=0;exitDy=0;entryX=0;entryY=0.5;entryDx=0;entryDy=0;" edge="1" parent="1c1d494c118603dd-1" source="G0RN5hafsZTGZZTyP4_G-27" target="G0RN5hafsZTGZZTyP4_G-29">
          <mxGeometry relative="1" as="geometry" />
        </mxCell>
        <mxCell id="G0RN5hafsZTGZZTyP4_G-46" value="yes" style="edgeStyle=orthogonalEdgeStyle;html=1;align=left;verticalAlign=top;endArrow=open;endSize=8;strokeColor=#ff0000;rounded=1;entryX=1;entryY=0.5;entryDx=0;entryDy=0;" edge="1" source="G0RN5hafsZTGZZTyP4_G-44" parent="1c1d494c118603dd-1" target="G0RN5hafsZTGZZTyP4_G-43">
          <mxGeometry x="-1" relative="1" as="geometry">
            <mxPoint x="520" y="510" as="targetPoint" />
            <Array as="points">
              <mxPoint x="853" y="600" />
              <mxPoint x="580" y="600" />
            </Array>
          </mxGeometry>
        </mxCell>
        <mxCell id="G0RN5hafsZTGZZTyP4_G-45" value="no" style="edgeStyle=orthogonalEdgeStyle;html=1;align=left;verticalAlign=bottom;endArrow=open;endSize=8;strokeColor=#ff0000;rounded=1;entryX=1;entryY=0.5;entryDx=0;entryDy=0;exitX=0;exitY=0.5;exitDx=0;exitDy=0;" edge="1" source="G0RN5hafsZTGZZTyP4_G-44" parent="1c1d494c118603dd-1" target="G0RN5hafsZTGZZTyP4_G-48">
          <mxGeometry x="-0.7949" relative="1" as="geometry">
            <mxPoint x="370" y="450" as="targetPoint" />
            <mxPoint x="450" y="450" as="sourcePoint" />
            <Array as="points">
              <mxPoint x="580" y="556" />
              <mxPoint x="580" y="548" />
            </Array>
            <mxPoint as="offset" />
          </mxGeometry>
        </mxCell>
        <mxCell id="1c1d494c118603dd-3" value="System" style="swimlane;html=1;startSize=20;" parent="1c1d494c118603dd-1" vertex="1">
          <mxGeometry x="710" y="20" width="530" height="1250" as="geometry" />
        </mxCell>
        <mxCell id="1c1d494c118603dd-39" style="edgeStyle=none;rounded=0;html=1;labelBackgroundColor=none;startArrow=none;startFill=0;startSize=5;endArrow=classicThin;endFill=1;endSize=5;jettySize=auto;orthogonalLoop=1;strokeWidth=1;fontFamily=Verdana;fontSize=12" parent="1c1d494c118603dd-3" target="1c1d494c118603dd-11" edge="1">
          <mxGeometry relative="1" as="geometry">
            <mxPoint x="113.54999999999995" y="420" as="sourcePoint" />
          </mxGeometry>
        </mxCell>
        <mxCell id="1c1d494c118603dd-41" style="edgeStyle=none;rounded=0;html=1;labelBackgroundColor=none;startArrow=none;startFill=0;startSize=5;endArrow=classicThin;endFill=1;endSize=5;jettySize=auto;orthogonalLoop=1;strokeWidth=1;fontFamily=Verdana;fontSize=12" parent="1c1d494c118603dd-3" target="1c1d494c118603dd-16" edge="1">
          <mxGeometry relative="1" as="geometry">
            <mxPoint x="154.6428571428571" y="540" as="sourcePoint" />
          </mxGeometry>
        </mxCell>
        <mxCell id="1c1d494c118603dd-54" style="edgeStyle=none;rounded=0;html=1;dashed=1;labelBackgroundColor=none;startArrow=none;startFill=0;startSize=5;endArrow=oval;endFill=0;endSize=5;jettySize=auto;orthogonalLoop=1;strokeWidth=1;fontFamily=Verdana;fontSize=12" parent="1c1d494c118603dd-3" source="1c1d494c118603dd-24" edge="1">
          <mxGeometry relative="1" as="geometry">
            <mxPoint x="127.08074534161483" y="610" as="targetPoint" />
          </mxGeometry>
        </mxCell>
        <mxCell id="G0RN5hafsZTGZZTyP4_G-23" style="edgeStyle=orthogonalEdgeStyle;rounded=1;orthogonalLoop=1;jettySize=auto;html=1;exitX=0.5;exitY=1;exitDx=0;exitDy=0;entryX=0.5;entryY=0;entryDx=0;entryDy=0;" edge="1" parent="1c1d494c118603dd-3" source="G0RN5hafsZTGZZTyP4_G-18" target="G0RN5hafsZTGZZTyP4_G-20">
          <mxGeometry relative="1" as="geometry" />
        </mxCell>
        <mxCell id="G0RN5hafsZTGZZTyP4_G-18" value="Authentication&lt;b&gt;(token)&lt;/b&gt;" style="rounded=1;whiteSpace=wrap;html=1;arcSize=40;fontColor=#000000;fillColor=#ffffc0;strokeColor=#ff0000;" vertex="1" parent="1c1d494c118603dd-3">
          <mxGeometry x="58" y="190" width="117" height="20" as="geometry" />
        </mxCell>
        <mxCell id="G0RN5hafsZTGZZTyP4_G-20" value="if(token ==valid)" style="rhombus;whiteSpace=wrap;html=1;fillColor=#ffffc0;strokeColor=#ff0000;" vertex="1" parent="1c1d494c118603dd-3">
          <mxGeometry x="75.5" y="250" width="82" height="50" as="geometry" />
        </mxCell>
        <mxCell id="G0RN5hafsZTGZZTyP4_G-47" style="edgeStyle=orthogonalEdgeStyle;rounded=1;orthogonalLoop=1;jettySize=auto;html=1;exitX=0.5;exitY=1;exitDx=0;exitDy=0;" edge="1" parent="1c1d494c118603dd-3" source="G0RN5hafsZTGZZTyP4_G-29" target="G0RN5hafsZTGZZTyP4_G-44">
          <mxGeometry relative="1" as="geometry" />
        </mxCell>
        <mxCell id="G0RN5hafsZTGZZTyP4_G-29" value="Authentication&lt;b&gt;(token)&lt;/b&gt;" style="rounded=1;whiteSpace=wrap;html=1;arcSize=40;fontColor=#000000;fillColor=#ffffc0;strokeColor=#ff0000;" vertex="1" parent="1c1d494c118603dd-3">
          <mxGeometry x="86" y="460" width="112" height="30" as="geometry" />
        </mxCell>
        <mxCell id="G0RN5hafsZTGZZTyP4_G-44" value="if(token ==valid)" style="rhombus;whiteSpace=wrap;html=1;fillColor=#ffffc0;strokeColor=#ff0000;" vertex="1" parent="1c1d494c118603dd-3">
          <mxGeometry x="88" y="513" width="110" height="47" as="geometry" />
        </mxCell>
        <mxCell id="G0RN5hafsZTGZZTyP4_G-99" style="edgeStyle=orthogonalEdgeStyle;rounded=1;orthogonalLoop=1;jettySize=auto;html=1;exitX=0.5;exitY=1;exitDx=0;exitDy=0;entryX=0.5;entryY=0;entryDx=0;entryDy=0;" edge="1" parent="1c1d494c118603dd-3" source="G0RN5hafsZTGZZTyP4_G-63" target="G0RN5hafsZTGZZTyP4_G-96">
          <mxGeometry relative="1" as="geometry" />
        </mxCell>
        <mxCell id="G0RN5hafsZTGZZTyP4_G-63" value="Save changes in the database" style="rounded=1;whiteSpace=wrap;html=1;arcSize=40;fontColor=#000000;fillColor=#ffffc0;strokeColor=#ff0000;" vertex="1" parent="1c1d494c118603dd-3">
          <mxGeometry x="128" y="870" width="112" height="30" as="geometry" />
        </mxCell>
        <mxCell id="G0RN5hafsZTGZZTyP4_G-96" value="if(success)" style="rhombus;whiteSpace=wrap;html=1;fillColor=#ffffc0;strokeColor=#ff0000;" vertex="1" parent="1c1d494c118603dd-3">
          <mxGeometry x="138" y="940" width="102" height="50" as="geometry" />
        </mxCell>
        <mxCell id="G0RN5hafsZTGZZTyP4_G-65" value="" style="edgeStyle=orthogonalEdgeStyle;html=1;verticalAlign=bottom;endArrow=open;endSize=8;strokeColor=#ff0000;rounded=1;entryX=0.5;entryY=0;entryDx=0;entryDy=0;" edge="1" parent="1c1d494c118603dd-1" target="G0RN5hafsZTGZZTyP4_G-63">
          <mxGeometry relative="1" as="geometry">
            <mxPoint x="174" y="790" as="targetPoint" />
            <mxPoint x="409" y="835" as="sourcePoint" />
            <Array as="points">
              <mxPoint x="409" y="850" />
              <mxPoint x="550" y="850" />
              <mxPoint x="550" y="860" />
            </Array>
          </mxGeometry>
        </mxCell>
        <mxCell id="G0RN5hafsZTGZZTyP4_G-89" style="edgeStyle=orthogonalEdgeStyle;rounded=1;orthogonalLoop=1;jettySize=auto;html=1;exitX=1;exitY=0.5;exitDx=0;exitDy=0;entryX=0.5;entryY=0;entryDx=0;entryDy=0;" edge="1" parent="1c1d494c118603dd-1" source="G0RN5hafsZTGZZTyP4_G-15" target="G0RN5hafsZTGZZTyP4_G-18">
          <mxGeometry relative="1" as="geometry" />
        </mxCell>
        <mxCell id="G0RN5hafsZTGZZTyP4_G-97" value="no" style="edgeStyle=orthogonalEdgeStyle;html=1;align=left;verticalAlign=bottom;endArrow=open;endSize=8;strokeColor=#ff0000;rounded=1;entryX=1;entryY=0.5;entryDx=0;entryDy=0;" edge="1" source="G0RN5hafsZTGZZTyP4_G-96" parent="1c1d494c118603dd-1" target="G0RN5hafsZTGZZTyP4_G-70">
          <mxGeometry x="-0.8609" y="-5" relative="1" as="geometry">
            <mxPoint x="1028" y="980" as="targetPoint" />
            <mxPoint as="offset" />
          </mxGeometry>
        </mxCell>
        <mxCell id="G0RN5hafsZTGZZTyP4_G-98" value="yes" style="edgeStyle=orthogonalEdgeStyle;html=1;align=left;verticalAlign=top;endArrow=open;endSize=8;strokeColor=#ff0000;rounded=1;entryX=1;entryY=0.5;entryDx=0;entryDy=0;" edge="1" source="G0RN5hafsZTGZZTyP4_G-96" parent="1c1d494c118603dd-1" target="G0RN5hafsZTGZZTyP4_G-72">
          <mxGeometry x="-1" relative="1" as="geometry">
            <mxPoint x="888" y="1060" as="targetPoint" />
            <Array as="points">
              <mxPoint x="899" y="1027" />
            </Array>
          </mxGeometry>
        </mxCell>
      </root>
    </mxGraphModel>
  </diagram>
</mxfile>
